<svg width="84" height="54" viewBox="0 0 84 54" fill="none" xmlns="http://www.w3.org/2000/svg">
<path d="M29.5711 46.3388L29.199 44.7718L28.9014 44.4584L31.8034 43.7272L32.1754 44.7718L36.1936 46.0254L36.5656 50.0994L29.5711 46.3388Z" fill="white"/>
<path d="M50.6291 52.1887L49.1409 50.7262L52.4894 45.0852L56.0611 41.9513L56.5075 40.1755L54.7217 36.9371L57.4005 35.6836L62.3115 41.2201L61.9395 43.7272L56.0611 46.3388L53.7544 49.3682L53.3079 51.4574L50.6291 52.1887Z" fill="white"/>
<path d="M29.5711 46.3388L29.199 44.7718L28.9014 44.4584L31.8034 43.7272L32.1754 44.7718L36.1936 46.0254L36.5656 50.0994L29.5711 46.3388Z" stroke="white"/>
<path d="M50.6291 52.1887L49.1409 50.7262L52.4894 45.0852L56.0611 41.9513L56.5075 40.1755L54.7217 36.9371L57.4005 35.6836L62.3115 41.2201L61.9395 43.7272L56.0611 46.3388L53.7544 49.3682L53.3079 51.4574L50.6291 52.1887Z" stroke="white"/>
<path d="M4.49728 20.6389L1 23.4594V25.5487L3.67877 28.5781L5.91107 27.429L6.50635 29.7272L4.94374 30.5629L7.69691 35.4726L11.7151 36.9351L19.4537 37.3529L23.9183 37.7708L28.1597 36.6217L23.323 40.5913L20.9419 46.0233L17.0726 49.8884V52.0821L18.9328 52.5L21.3884 51.7688L22.5789 49.8884L24.3648 45.6055L26.3739 44.5609L32.4011 43.6207L39.0236 42.6805L40.2142 39.4422L39.9909 37.3529L50.706 39.0243L57.3285 35.4726L60.3049 40.2779L67.3739 42.3671H74.8149L83 39.4422L81.5862 35.4726L76.6751 36.6217L69.6062 33.1744L68.8621 17.2961L67.3739 13.3266L70.3503 9.357L73.5499 8.41684L75.8566 7.05882H70.3503L66.7786 10.2972H64.5463C61.3714 8.86951 54.9771 6.0142 54.7985 6.0142C54.62 6.0142 44.4059 2.6714 39.3212 1L34.6334 1.62677L26.9691 3.92495L23.323 4.23834H22.2069H17.8167L15.5844 7.05882L14.6915 12.4909L10.078 18.3408L4.49728 20.6389Z" fill="white"/>
<path d="M28.1597 36.6217L23.323 40.5913L20.9419 46.0233L17.0726 49.8884V52.0822L18.9328 52.5L21.3884 51.7688L22.5789 49.8884L24.3648 45.6055L26.3739 44.5609L32.4011 43.6207L39.0236 42.6805L40.2142 39.4422L39.9909 37.3529L50.706 39.0243L57.3285 35.4726L60.3049 40.2779L67.3739 42.3671H74.8149L83 39.4422L81.5862 35.4726L76.6751 36.6217L69.6062 33.1744L68.8621 17.2961L67.3739 13.3266L70.3503 9.357L73.5499 8.41684L75.8566 7.05882H70.3503L66.7786 10.2972H64.5463C61.3714 8.86951 54.9771 6.0142 54.7985 6.0142C54.62 6.0142 44.4059 2.6714 39.3212 1L34.6334 1.62677L26.9691 3.92495L23.323 4.23834H22.2069H17.8167L15.5844 7.05882L14.6915 12.4909L10.078 18.3408L4.49728 20.6389L1 23.4594V25.5487L3.67877 28.5781L5.91107 27.429M28.1597 36.6217L27.5644 29.7272M28.1597 36.6217L23.9183 37.7708L19.4537 37.3529L11.7151 36.9351L7.69691 35.4726L4.94374 30.5629L6.50635 29.7272L5.91107 27.429M5.31579 25.1308L5.91107 27.429" stroke="white"/>
<path d="M15.4128 18.5498L12.3838 21.802L15.4128 22.9498L19.7038 21.0368L15.4128 18.5498Z" fill="#AFA175"/>
</svg>
