<svg width="40" height="39" viewBox="0 0 40 39" fill="none" xmlns="http://www.w3.org/2000/svg">
<path d="M6.73322 33.0344C5.09516 33.0344 3.73011 33.5804 3.73011 33.5804C3.73011 33.5804 1.2922 31.8724 1.01919 25.8662C0.746181 19.86 3.47629 17.676 3.47629 17.676C3.47629 17.676 6.98704 18.6347 8.89812 18.0887C10.8092 17.5427 11.9204 16.3808 11.9204 16.3808C11.9204 16.3808 13.3047 15.2189 14.1237 11.6697C14.9427 8.12057 14.5 5.00003 14.5 5.00003C14.5 5.00003 14.181 3.59204 15 2.5C15.819 1.40796 16.7114 1.18126 18.0765 2.00029C19.4415 2.81932 19.727 2.99692 20 6.00003C20.273 9.00315 19 13 19 13C19 13 22.0218 12.2158 26.117 12.7618C30.2121 13.3079 32.1424 14.6729 32.1424 14.6729C32.1424 14.6729 34.8725 16.311 34.0535 18.222C33.2345 20.1331 30.7774 19.86 30.7774 19.86C29.4123 19.4049 26.663 18.8379 26.39 19.1109C26.117 19.3839 32.1424 20.679 32.1424 20.679C34.0433 22.9264 33.9212 24.1131 31.5964 25.8662C31.5964 25.8662 26.0978 24.095 25.844 24.2981C25.5902 24.5011 31.3234 26.1392 31.3234 26.1392C31.3234 26.1392 33.2345 27.7773 32.6884 29.4153C32.1424 31.0534 29.6853 31.0533 29.6853 31.0533C27.9562 30.5983 24.6073 29.7428 25.0441 29.9612L35.9454 33.8535C37.3104 34.3995 38.7847 35.2185 38.1295 36.8566C37.4742 38.4946 32.6692 36.8566 32.6692 36.8566C32.6692 36.8566 20.9298 33.372 19.5647 33.0344C18.1997 32.6969 17.3806 33.0344 14.9235 33.3074C12.4664 33.5804 12.1564 33.5417 9.73634 33.5804C9.73634 33.5804 8.37129 33.0344 6.73322 33.0344Z" stroke="#DFD683" stroke-width="2"/>
</svg>
