<svg width="48" height="40" viewBox="0 0 48 40" fill="none" xmlns="http://www.w3.org/2000/svg">
<path fill-rule="evenodd" clip-rule="evenodd" d="M18 18C18 17.4477 17.5523 17 17 17C16.4477 17 16 17.4477 16 18V19C16 23.0796 19.0537 26.446 23 26.9381V30H19.3333C18.781 30 18.3333 30.4477 18.3333 31C18.3333 31.5523 18.781 32 19.3333 32H23.9784L24 32.0002L24.0216 32H28.6667C29.219 32 29.6667 31.5523 29.6667 31C29.6667 30.4477 29.219 30 28.6667 30H25V26.9381C28.9463 26.446 32 23.0796 32 19V18C32 17.4477 31.5523 17 31 17C30.4477 17 30 17.4477 30 18V19C30 22.3137 27.3137 25 24 25C20.6863 25 18 22.3137 18 19V18Z" fill="#8FE39C"/>
<rect x="20.5" y="6.5" width="7" height="16" rx="3.5" fill="#8CE29A" stroke="#8CE29A" stroke-width="2"/>
</svg>
