<svg width="36" height="36" viewBox="0 0 36 36" fill="none" xmlns="http://www.w3.org/2000/svg">
<path d="M32.4 0H3.6C1.62 0 0 1.62 0 3.6V32.4C0 34.38 1.62 36 3.6 36H32.4C34.38 36 36 34.38 36 32.4V3.6C36 1.62 34.38 0 32.4 0ZM10.8 32.4H3.6V25.2H10.8V32.4ZM10.8 21.6H3.6V14.4H10.8V21.6ZM10.8 10.8H3.6V3.6H10.8V10.8ZM21.6 32.4H14.4V25.2H21.6V32.4ZM21.6 21.6H14.4V14.4H21.6V21.6ZM21.6 10.8H14.4V3.6H21.6V10.8ZM32.4 32.4H25.2V25.2H32.4V32.4ZM32.4 21.6H25.2V14.4H32.4V21.6ZM32.4 10.8H25.2V3.6H32.4V10.8Z" fill="url(#paint0_linear_175_199)"/>
<path d="M32.4 0H3.6C1.62 0 0 1.62 0 3.6V32.4C0 34.38 1.62 36 3.6 36H32.4C34.38 36 36 34.38 36 32.4V3.6C36 1.62 34.38 0 32.4 0ZM10.8 32.4H3.6V25.2H10.8V32.4ZM10.8 21.6H3.6V14.4H10.8V21.6ZM10.8 10.8H3.6V3.6H10.8V10.8ZM21.6 32.4H14.4V25.2H21.6V32.4ZM21.6 21.6H14.4V14.4H21.6V21.6ZM21.6 10.8H14.4V3.6H21.6V10.8ZM32.4 32.4H25.2V25.2H32.4V32.4ZM32.4 21.6H25.2V14.4H32.4V21.6ZM32.4 10.8H25.2V3.6H32.4V10.8Z" stroke="#836363"/>
<defs>
<linearGradient id="paint0_linear_175_199" x1="18" y1="0" x2="18" y2="36" gradientUnits="userSpaceOnUse">
<stop stop-color="#91B376"/>
<stop offset="1" stop-color="#80A581"/>
</linearGradient>
</defs>
</svg>
