<svg width="37" height="37" viewBox="0 0 37 37" fill="none" xmlns="http://www.w3.org/2000/svg">
<g filter="url(#filter0_d_175_230)">
<path d="M14.8333 1L14.6296 2.03125L13.8556 5.79928C12.613 6.27524 11.4926 6.94456 10.4741 7.74279L6.68519 6.47356L5.66667 6.15625L5.13704 7.06851L2.52963 11.4315L2 12.3438L2.77407 13.018L5.70741 15.5168C5.60046 16.1663 5.46296 16.8158 5.46296 17.5C5.46296 18.1842 5.60046 18.8337 5.70741 19.4832L2.77407 21.982L2 22.6562L2.52963 23.5685L5.13704 27.9315L5.66667 28.8438L6.68519 28.5264L10.4741 27.2572C11.4926 28.0554 12.613 28.7248 13.8556 29.2007L14.6296 32.9688L14.8333 34H22.1667L22.3704 32.9688L23.1444 29.2007C24.387 28.7248 25.5074 28.0554 26.5259 27.2572L30.3148 28.5264L31.3333 28.8438L31.863 27.9315L34.4704 23.5685L35 22.6562L34.2259 21.982L31.2926 19.4832C31.3995 18.8337 31.537 18.1842 31.537 17.5C31.537 16.8158 31.3995 16.1663 31.2926 15.5168L34.2259 13.018L35 12.3438L34.4704 11.4315L31.863 7.06851L31.3333 6.15625L30.3148 6.47356L26.5259 7.74279C25.5074 6.94456 24.387 6.27524 23.1444 5.79928L22.3704 2.03125L22.1667 1H14.8333ZM16.9519 3.53846H20.0481L20.7 6.83053L20.863 7.58414L21.5963 7.82212C23.0782 8.27329 24.4227 9.03681 25.5481 10.0433L26.1185 10.5589L26.8519 10.3209L30.1519 9.21034L31.7 11.7885L29.0926 14.0493L28.4815 14.5252L28.6852 15.2788C28.8532 16.0027 28.9296 16.7414 28.9296 17.5C28.9296 18.2586 28.8532 18.9973 28.6852 19.7212L28.5222 20.4748L29.0926 20.9507L31.7 23.2115L30.1519 25.7897L26.8519 24.6791L26.1185 24.4411L25.5481 24.9567C24.4227 25.9632 23.0782 26.7267 21.5963 27.1779L20.863 27.4159L20.7 28.1695L20.0481 31.4615H16.9519L16.3 28.1695L16.137 27.4159L15.4037 27.1779C13.9218 26.7267 12.5773 25.9632 11.4519 24.9567L10.8815 24.4411L10.1481 24.6791L6.84815 25.7897L5.3 23.2115L7.90741 20.9507L8.51852 20.4748L8.31482 19.7212C8.14676 18.9973 8.07037 18.2586 8.07037 17.5C8.07037 16.7414 8.14676 16.0027 8.31482 15.2788L8.51852 14.5252L7.90741 14.0493L5.3 11.7885L6.84815 9.21034L10.1481 10.3209L10.8815 10.5589L11.4519 10.0433C12.5773 9.03681 13.9218 8.27329 15.4037 7.82212L16.137 7.58414L16.3 6.83053L16.9519 3.53846ZM18.5 11.1538C14.9148 11.1538 11.9815 14.0096 11.9815 17.5C11.9815 20.9904 14.9148 23.8462 18.5 23.8462C22.0852 23.8462 25.0185 20.9904 25.0185 17.5C25.0185 14.0096 22.0852 11.1538 18.5 11.1538ZM18.5 13.6923C20.6745 13.6923 22.4111 15.383 22.4111 17.5C22.4111 19.617 20.6745 21.3077 18.5 21.3077C16.3255 21.3077 14.5889 19.617 14.5889 17.5C14.5889 15.383 16.3255 13.6923 18.5 13.6923Z" fill="#8AAE7A"/>
</g>
<defs>
<filter id="filter0_d_175_230" x="0" y="0" width="37" height="37" filterUnits="userSpaceOnUse" color-interpolation-filters="sRGB">
<feFlood flood-opacity="0" result="BackgroundImageFix"/>
<feColorMatrix in="SourceAlpha" type="matrix" values="0 0 0 0 0 0 0 0 0 0 0 0 0 0 0 0 0 0 127 0" result="hardAlpha"/>
<feOffset dy="1"/>
<feGaussianBlur stdDeviation="1"/>
<feComposite in2="hardAlpha" operator="out"/>
<feColorMatrix type="matrix" values="0 0 0 0 0.0625 0 0 0 0 0.0466146 0 0 0 0 0.0466146 0 0 0 0.02 0"/>
<feBlend mode="normal" in2="BackgroundImageFix" result="effect1_dropShadow_175_230"/>
<feBlend mode="normal" in="SourceGraphic" in2="effect1_dropShadow_175_230" result="shape"/>
</filter>
</defs>
</svg>
